<?xml version="1.0" encoding="utf-8"?>
<!-- Generator: Adobe Illustrator 21.1.0, SVG Export Plug-In . SVG Version: 6.00 Build 0)  -->
<svg version="1.1" id="Layer_1" xmlns="http://www.w3.org/2000/svg" xmlns:xlink="http://www.w3.org/1999/xlink" x="0px" y="0px"
	 viewBox="0 0 100 100" style="enable-background:new 0 0 100 100;" xml:space="preserve">
<path fill="#adadad" d="M92.3,76.9c-17.4,27.1-55.4,30.9-77.7,8.3c-19.5-19.1-19.5-51.1,0-70.5C37.3-7.9,71.1-2.7,88.5,18.2
	C102.8,35.2,103.5,58.5,92.3,76.9L92.3,76.9z M95.4,52.2H78c0,6.3-0.7,12.5-2.1,17.7c4.5,1,8.7,2.1,12.9,3.5
	C92.7,67.2,95.1,60.2,95.4,52.2L95.4,52.2z M73.5,52.2H52.3v15.3c6.6,0,12.9,0.7,19.2,1.7C72.5,64.1,73.5,58.5,73.5,52.2L73.5,52.2z
	 M47.7,52.2H26.5c0.3,6.3,1,11.8,2.1,17c6.3-1,12.5-1.7,19.2-1.7L47.7,52.2z M21.9,52.2H4.5c0.7,8,2.8,14.9,6.6,21.2
	C15.3,72,19.5,71,24,70C22.6,64.8,21.9,58.5,21.9,52.2L21.9,52.2z M4.5,47.7h17.4c0-5.9,0.7-11.5,2.1-16.7c-4.9-1-9.1-2.4-13.2-3.8
	C7.3,33.5,4.9,40.4,4.5,47.7L4.5,47.7z M26.5,47.7h21.2V33.5c-6.6,0-13.2-0.7-19.2-1.7C27.5,36.6,26.5,42.2,26.5,47.7L26.5,47.7z
	 M52.2,47.7h21.2c0-5.6-0.7-11.1-2.1-16c-5.9,1-12.5,1.7-19.2,1.7L52.2,47.7z M78,47.7h17.4c-0.3-7.3-2.8-14.2-6.3-20.5
	c-4.2,1.4-8.4,2.8-13.2,3.8C77.3,36.3,78,41.8,78,47.7L78,47.7z M52.2,5v24c6.3-0.3,12.5-0.7,18.1-1.7C67.6,18.9,61.7,6.7,52.2,5
	L52.2,5z M52.2,72.1V95c9.4-1.7,15-13.2,17.8-21.2C64.4,72.7,58.5,72.4,52.2,72.1L52.2,72.1z M47.7,95V72.1
	c-6.3,0.3-12.2,0.7-17.8,1.7C32.7,81.8,38.7,93.2,47.7,95L47.7,95z M47.7,29V5c-9.4,1.7-15.3,13.9-18.1,22.2
	C35.5,28.3,41.5,28.6,47.7,29L47.7,29z M64.4,7.1c5.2,5.2,8.4,12.5,10.4,19.5c4.2-1,8-2.1,11.8-3.1C81.2,15.8,73.5,10.2,64.4,7.1
	L64.4,7.1z M74.5,74.5c-2.1,6.6-5.2,13.6-10.1,18.4c8.7-2.8,16.4-8.3,21.6-15.3C82.6,76.2,78.7,75.2,74.5,74.5L74.5,74.5z
	 M35.5,92.9c-4.9-4.9-8-11.8-10.1-18.4c-4.2,0.7-8,1.7-11.5,3.1C19.5,84.6,26.8,90.1,35.5,92.9L35.5,92.9z M25.1,26.5
	c2.1-7,5.6-14.2,10.4-19.5c-9.1,3.1-16.7,8.7-22.3,16.3C17.1,24.4,20.9,25.5,25.1,26.5L25.1,26.5z"/>
</svg>
