<svg xmlns="http://www.w3.org/2000/svg" viewBox="0 0 160.12 49.41"><g fill="#fff"><path d="M5.58 48.55H0V1.23L5.58 0zm14.93-34.34l4.37 3.18L14.14 31l12.44 15-4.31 3.37L7.58 31.29zM31.52 39.56c0-3.39 1.12-6 3.37-7.75s5.51-2.67 9.8-2.67h6.43V27q0-7.77-6.8-7.77a18.46 18.46 0 00-4.58.61 26.72 26.72 0 00-4.4 1.53l-1.64-4a22.54 22.54 0 015.38-2.17 21.82 21.82 0 015.61-.77q11.78 0 11.77 12.67v21.45h-4.12l-.67-3.67A19.69 19.69 0 0146.36 48 14.64 14.64 0 0141 49.1a9.31 9.31 0 01-7-2.54 9.5 9.5 0 01-2.52-7m10.48 5a10.1 10.1 0 002.38-.31 19.84 19.84 0 002.48-.8 12.77 12.77 0 002.33-1.19 13.7 13.7 0 001.93-1.5v-7.82h-5.8q-4.41 0-6.44 1.53a5.71 5.71 0 00-2 4.84q0 5.27 5.14 5.27M72 48.55h-5.6V1.23L72 0zm14.9-34.34l4.37 3.18L80.53 31 93 46l-4.31 3.37L74 31.29zM97.92 39.56c0-3.39 1.12-6 3.36-7.75s5.51-2.67 9.8-2.67h6.43V27q0-7.77-6.79-7.77a18.4 18.4 0 00-4.58.61 26.09 26.09 0 00-4.4 1.53l-1.64-4a22.63 22.63 0 015.37-2.17 21.82 21.82 0 015.61-.77q11.78 0 11.77 12.67v21.45h-4.12l-.67-3.67a19.69 19.69 0 01-5.31 3.12 14.64 14.64 0 01-5.37 1.1 9.33 9.33 0 01-6.95-2.54 9.5 9.5 0 01-2.51-7m10.47 5a10.19 10.19 0 002.39-.31 20.38 20.38 0 002.48-.8 12.69 12.69 0 002.32-1.19 13.7 13.7 0 001.93-1.5v-7.82h-5.79c-3 0-5.09.51-6.44 1.53a5.68 5.68 0 00-2 4.84q0 5.27 5.13 5.27M145.31 14.51c4.61 0 8.24 1.51 10.86 4.53s4 7.35 4 13-1.3 9.82-3.92 12.8-6.24 4.47-10.89 4.47-8.23-1.49-10.86-4.47-3.94-7.25-3.94-12.8 1.32-10 4-13 6.26-4.53 10.83-4.53m0 4.53a7.7 7.7 0 00-6.7 3.31c-1.56 2.2-2.34 5.43-2.34 9.67s.78 7.38 2.34 9.52a8.65 8.65 0 0013.47 0q2.34-3.21 2.34-9.52c0-4.24-.78-7.47-2.34-9.67a7.76 7.76 0 00-6.85-3.35"/></g></svg>