<svg xmlns="http://www.w3.org/2000/svg" viewBox="0 0 160.12 49.41">
  <title>kakao</title>
  <g>
    <path d="M5.58,48.55H0V1.23L5.58,0ZM20.51,14.21l4.37,3.18L14.14,31,26.58,46l-4.31,3.37L7.58,31.29Z" style="fill: #fff"/>
    <path d="M31.52,39.56c0-3.39,1.12-6,3.37-7.75s5.51-2.67,9.8-2.67h6.43V27q0-7.77-6.8-7.77a18.46,18.46,0,0,0-4.58.61,26.72,26.72,0,0,0-4.4,1.53l-1.64-4a22.54,22.54,0,0,1,5.38-2.17,21.82,21.82,0,0,1,5.61-.77q11.78,0,11.77,12.67V48.55H52.34l-.67-3.67A19.69,19.69,0,0,1,46.36,48,14.64,14.64,0,0,1,41,49.1a9.31,9.31,0,0,1-7-2.54,9.5,9.5,0,0,1-2.52-7m10.48,5a10.1,10.1,0,0,0,2.38-.31,19.84,19.84,0,0,0,2.48-.8,12.77,12.77,0,0,0,2.33-1.19,13.7,13.7,0,0,0,1.93-1.5V32.94h-5.8q-4.41,0-6.44,1.53a5.71,5.71,0,0,0-2,4.84q0,5.27,5.14,5.27" style="fill: #fff"/>
    <path d="M72,48.55H66.4V1.23L72,0ZM86.9,14.21l4.37,3.18L80.53,31,93,46l-4.31,3.37L74,31.29Z" style="fill: #fff"/>
    <path d="M97.92,39.56c0-3.39,1.12-6,3.36-7.75s5.51-2.67,9.8-2.67h6.43V27q0-7.77-6.79-7.77a18.4,18.4,0,0,0-4.58.61,26.09,26.09,0,0,0-4.4,1.53l-1.64-4a22.63,22.63,0,0,1,5.37-2.17,21.82,21.82,0,0,1,5.61-.77q11.78,0,11.77,12.67V48.55h-4.12l-.67-3.67A19.69,19.69,0,0,1,112.75,48a14.64,14.64,0,0,1-5.37,1.1,9.33,9.33,0,0,1-6.95-2.54,9.5,9.5,0,0,1-2.51-7m10.47,5a10.19,10.19,0,0,0,2.39-.31,20.38,20.38,0,0,0,2.48-.8,12.69,12.69,0,0,0,2.32-1.19,13.7,13.7,0,0,0,1.93-1.5V32.94h-5.79c-3,0-5.09.51-6.44,1.53a5.68,5.68,0,0,0-2,4.84q0,5.27,5.13,5.27" style="fill: #fff"/>
    <path d="M145.31,14.51c4.61,0,8.24,1.51,10.86,4.53s4,7.35,4,13-1.3,9.82-3.92,12.8-6.24,4.47-10.89,4.47-8.23-1.49-10.86-4.47-3.94-7.25-3.94-12.8,1.32-10,4-13,6.26-4.53,10.83-4.53m0,4.53a7.7,7.7,0,0,0-6.7,3.31c-1.56,2.2-2.34,5.43-2.34,9.67s.78,7.38,2.34,9.52a8.65,8.65,0,0,0,13.47,0q2.34-3.21,2.34-9.52c0-4.24-.78-7.47-2.34-9.67A7.76,7.76,0,0,0,145.31,19" style="fill: #fff"/>
  </g>
</svg>
