<?xml version="1.0" encoding="utf-8"?>
<!-- Generator: Adobe Illustrator 24.1.0, SVG Export Plug-In . SVG Version: 6.00 Build 0)  -->
<svg version="1.1" id="_x2211_π_xBF_ÃæÓ_1" xmlns="http://www.w3.org/2000/svg" xmlns:xlink="http://www.w3.org/1999/xlink"
	 x="0px" y="0px" viewBox="0 0 523.84 525.09" style="enable-background:new 0 0 523.84 525.09;" xml:space="preserve">
<style type="text/css">
	.st0{fill-rule:evenodd;clip-rule:evenodd;fill:#adadad;}
</style>
<path class="st0" d="M0,319.91c0,113.32,91.86,205.18,205.18,205.18c88.48,0,163.88-56,192.68-134.5h30.84
	c52.54,0,95.14-42.6,95.14-95.14c0-52.54-42.6-95.14-95.14-95.14h-18.34H0V319.91L0,319.91z M408.52,347.44
	c1.21-9.01,1.84-18.2,1.84-27.53v-76.44h18.34c28.71,0,51.99,23.28,51.99,51.99c0,28.71-23.28,51.99-51.99,51.99H408.52z"/>
<path class="st0" d="M85.68,136.79h136.79h17.62c75.55,0,136.79-61.24,136.79-136.79H240.09h-17.62
	C146.92,0,85.68,61.24,85.68,136.79z"/>
</svg>
