<svg aria-labelledby="simpleicons-ps4-icon" role="img" viewBox="0 0 87.9 66.75" xmlns="http://www.w3.org/2000/svg"><title id="simpleicons-ps4-icon">ps4icon</title><path fill="#adadad" d="M48.18,10.75c-1.73-.56-2.79,1.05-2.79,3.43V65.24L31.61,60.86V0a165.59,165.59,0,0,1,19,5.19c11.66,4,15.61,9,15.61,20.22,0,10.94-6.75,15.09-15.34,10.94V16C50.86,13.58,50.42,11.38,48.18,10.75Zm30,32a43.9,43.9,0,0,0-19.11-2.28,50.92,50.92,0,0,0-10.26,2.18L48,43v8.27L62.76,46A15.09,15.09,0,0,1,71,45.6c2,.67,1.65,1.95-.86,2.85L48,56.34v8L78.1,53.5s4-1.49,5.7-3.57S84.72,44.82,78.22,42.77ZM1.6,47.46c-3,2.26-1.92,6.16,4.75,8a44.59,44.59,0,0,0,21.24,1.71L28.94,57V49.83L22.13,52.3a15,15,0,0,1-8.25.42c-2-.66-1.66-1.94.85-2.84l14.21-5.09v-8l-19.74,7A33,33,0,0,0,1.6,47.46Z"/></svg>
