<?xml version="1.0" encoding="utf-8"?>
<!-- Generator: Adobe Illustrator 21.1.0, SVG Export Plug-In . SVG Version: 6.00 Build 0)  -->
<svg version="1.1" id="Layer_1" xmlns="http://www.w3.org/2000/svg" xmlns:xlink="http://www.w3.org/1999/xlink" x="0px" y="0px"
	 viewBox="0 0 2013.6 1653.8" enable-background="new 0 0 2013.6 1653.8" xml:space="preserve">
<path fill="#adadad" d="M452.9,59.4c0-33.3-27-60.4-60.3-60.4c0,0,0,0,0,0H62.8c-9.3,0-16.9,7.5-16.9,16.9c0,0,0,0,0,0v428
	c0,9.3-7.5,16.9-16.9,16.9c0,0,0,0,0,0h-1.9c-9.3,0-16.9,7.5-16.9,16.9v117.5c0,9.3,7.5,16.9,16.9,16.9c0,0,0,0,0,0h1.9
	c9.3,0,16.9,7.5,16.9,16.9v355.4c0,23.8,19.3,43.1,43.1,43.1h78.6c23.8,0,43.1-19.3,43.1-43.1V620.7c0-4.8,3.9-8.6,8.6-8.6H323
	c34.9,0,75.4,5.4,105.3-20.7c18.4-16,23.6-40.9,24.8-64.6C453.2,498.9,452.9,59.4,452.9,59.4L452.9,59.4z M288.8,444
	c0,9.3-7.5,16.9-16.9,16.9h-44.3c-9.3,0-16.9-7.5-16.9-16.9V158.7c0-9.3,7.5-16.9,16.9-16.9l0,0h44.3c9.3,0,16.9,7.5,16.9,16.9
	L288.8,444z"/>
<path fill="#adadad" d="M1477.5,549.2c-0.5-2.2-1.1-4.5-1.8-6.6c-8.2-26-28.8-42-46.3-61.5c-3.4-3.8-6.8-7.7-10.2-11.6
	c0.4,0.5,6.1-1.9,6.9-2.2c2.3-0.9,4.6-1.9,6.8-3c14.3-7.3,26-21.7,30.5-37.2c0.3-1,0.6-2.1,0.8-3.1c1.9-8.9,1.5-18.4,1.7-27.5
	c0.1-3.6,0.2-7.1,0.2-10.7c0.2-8.4,0.3-16.7,0.4-25.1c0.1-9.8,0.2-19.5,0.3-29.3c0.1-10.8,0.2-21.6,0.2-32.4
	c0.1-11.5,0.1-22.9,0.1-34.4c0-11.7,0-23.5,0.1-35.2c0-11.7,0-23.4,0-34.9c0-11.2,0-22.4,0-33.6c0-10.4,0-20.7-0.1-31
	c0-9.1,0-18.3-0.1-27.4c0-7.6,0-15.1-0.1-22.7c0-5.6,0-11.2-0.1-16.9c0-3.3,0-6.6,0-9.9v-2.2c0.1-28.6-23.1-51.8-51.6-51.8
	c0,0-0.1,0-0.1,0h-317.1c-9.8,0-17.8,8-17.8,17.8c0,0,0,0,0,0v370.1c0,9.8-8,17.8-17.8,17.8l0,0c-9.8,0-17.8,8-17.8,17.8v0v106.9
	c0,9.8,8,17.8,17.8,17.8l0,0c9.8,0,17.8,8,17.8,17.8c0,0,0,0,0,0v443.3c0,9.8,9.1,17.8,18.9,17.8h273.2
	c59.1,0,107.2-47.7,107.7-106.8c0,0-0.1-282.6,0.2-329.8C1480.4,575.9,1480.4,562.3,1477.5,549.2L1477.5,549.2z M1235.5,154.3
	c0-9.8,8-17.8,17.8-17.8c0,0,0,0,0,0h42.6c9.8,0,17.8,8,17.8,17.8c0,0,0,0,0,0v239.1c0,9.8-8,17.8-17.8,17.8l0,0h-42.5
	c-9.8,0-17.8-8-17.8-17.8v0L1235.5,154.3z M1315.1,865.4c0,9.8-8,17.8-17.8,17.8l0,0h-44c-9.8,0-17.8-8-17.8-17.8v0V580.2
	c0-9.8,8-17.8,17.8-17.8l0,0h44c9.8,0,17.8,8,17.8,17.8v0V865.4z"/>
<path fill="#adadad" d="M1957.3,406.6h-161.7c-8.1,0-14.6,6.5-14.6,14.6v111.8c0,8,6.5,14.5,14.5,14.5l0,0h6.6
	c8,0,14.5,6.5,14.5,14.5v0v307c0,8-6.5,14.6-14.5,14.6h0h-58.3c-8,0-14.5-6.5-14.5-14.5c0,0,0,0,0-0.1V151.4c0-8,6.5-14.5,14.5-14.5
	l0,0h79.8c8,0,14.5,6.5,14.5,14.5c0,0,0,0,0,0v82.7c0,8,6.5,14.5,14.5,14.5l0,0h103.3c8,0,15.7-6.5,15.7-14.5v-183
	c0-28.6-23.1-51.7-51.7-51.8h-269.4c-47.6,0-86.2,38.6-86.2,86.2v850.3c0,50,40.5,90.5,90.5,90.5l0,0h214
	c56.8,0,102.9-48.2,102.9-107.8V421.1C1971.9,413.1,1965.4,406.6,1957.3,406.6L1957.3,406.6L1957.3,406.6z"/>
<path fill="#adadad" d="M983.3,20c0-11.6-9.4-21-21-21H839.4c-11.6,0-21,9.4-21,21v841.7c0,11.9-9.7,21.5-21.5,21.5h-60.2
	c-11.9-0.1-21.5-9.7-21.5-21.5V20c0-11.6-9.4-21-21-21H571.3c-11.6,0-21,9.4-21,21v869.8c0,28-0.3,56.3,14,81.5
	c5.6,9.9,12.8,18.9,21.2,26.6c2,1.9,4.2,3.6,6.4,5.3c1.6,1.2,3.2,2.4,4.8,3.5c0.9,0.7,1.8,1.3,2.8,1.9c11.3,7.3,23.8,12.5,37,15.2
	c7.1,1.5,14.4,2.2,21.7,2.2h217.4c7.3,0,14.6-0.7,21.7-2.2c13.2-2.7,25.7-7.9,37-15.2c0.9-0.6,1.9-1.2,2.8-1.9
	c1.6-1.1,3.2-2.3,4.8-3.5c2.2-1.7,4.3-3.5,6.4-5.3c8.4-7.7,15.6-16.7,21.2-26.6c14.3-25.2,14-53.5,14-81.5
	C983.3,867.8,983.3,20,983.3,20L983.3,20z"/>
<path fill="#adadad" d="M120.5,1649.7l-5.1-24.2H90.1l-5.1,24.2H60.4L89,1527.6h29.3l28.4,122.1H120.5z M103.2,1561.6l-9.3,44.5h18
	L103.2,1561.6z"/>
<path fill="#adadad" d="M285.8,1649.7h-45.3v-122.1h44.7c19.8,0,30.6,10.6,30.6,28v8.8c0,11.6-4.6,20.5-17,22.7
	c13,2.8,17.8,11.4,17.8,22.7v11.7C316.6,1639.2,305.6,1649.7,285.8,1649.7L285.8,1649.7z M290.9,1558c0-6-2.6-9.9-9.4-9.9h-14.7
	v31.2h13.6c6.8,0,10.5-3.5,10.5-10.6V1558z M291.5,1608.3c0-7.2-3.7-10.8-10.5-10.8h-14.1v31.7h15.2c6.8,0,9.4-3.7,9.4-9.7
	L291.5,1608.3z"/>
<path fill="#adadad" d="M352.9,1649.7v-122.1h26.2v99.5h40.1v22.5H352.9z"/>
<path fill="#adadad" d="M485.4,1652.8c-23.1,0-40-13.9-40-34.3v-90.9H472v90.5c0,8.2,4.8,12.8,13.4,12.8c8.8,0,13.8-4.6,13.8-12.8
	v-90.5h25.5v90.9C524.6,1638.9,508.7,1652.8,485.4,1652.8L485.4,1652.8z"/>
<path fill="#adadad" d="M562.9,1649.7v-122.1h68v22h-41.8v26.8h28.8v19.8h-28.8v30.6H631v22.9L562.9,1649.7z"/>
<path fill="#adadad" d="M722.2,1649.7v-48.9h-30.4v48.9h-26.2v-122.1h26.2v50.6h30.4v-50.6h26.2v122.1H722.2z"/>
<path fill="#adadad" d="M821.9,1652.8c-25.1,0-40.1-15.6-40.1-37.4v-53.5c0-21.6,15-37.2,40.1-37.2c25.3,0,40.1,15.6,40.1,37.2v53.5
	C862,1637.2,847.2,1652.8,821.9,1652.8z M835.6,1560.4c0-8.2-5-13.8-13.8-13.8c-8.6,0-13.6,5.5-13.6,13.8v56.4
	c0,8.2,5,13.8,13.6,13.8c8.8,0,13.8-5.5,13.8-13.8V1560.4z"/>
<path fill="#adadad" d="M899,1649.7v-122.1h26.2v99.5h40.1v22.5H899z"/>
<path fill="#adadad" d="M997.3,1649.7v-122.1h68v22h-41.8v26.8h28.8v19.8h-28.8v30.6h41.8v22.9L997.3,1649.7z"/>
<path fill="#adadad" d="M1206.8,1652.8c-25.8,0-40.9-16.7-40.9-37.8v-52.8c0-21.1,15-37.8,40.9-37.8c25.5,0,38.5,15.2,38.5,35.6
	v11.9h-23.5v-11.4c0-8.4-4.9-13.9-14.7-13.9s-14.7,5.7-14.7,13.6v57c0,7.7,4.9,13.4,14.7,13.4s14.7-5.5,14.7-13.9v-11.4h23.5v11.9
	C1245.2,1637.6,1232.2,1652.8,1206.8,1652.8z"/>
<path fill="#adadad" d="M1319.1,1652.8c-25.1,0-40.1-15.6-40.1-37.4v-53.5c0-21.6,15-37.2,40.1-37.2c25.3,0,40.1,15.6,40.1,37.2
	v53.5C1359.2,1637.2,1344.4,1652.8,1319.1,1652.8z M1332.9,1560.4c0-8.2-4.9-13.8-13.8-13.8c-8.6,0-13.6,5.5-13.6,13.8v56.4
	c0,8.2,4.9,13.8,13.6,13.8c8.8,0,13.8-5.5,13.8-13.8V1560.4z"/>
<path fill="#adadad" d="M1478.6,1649.7v-86.5l-6,27.7l-14.7,58.8h-19.6l-13.9-58.8l-5.9-27.7v86.5H1395v-122.1h35.1l14.7,62.1
	l4.4,21.4l4.6-21.4l14.5-62.1h35v122.1H1478.6z"/>
<path fill="#adadad" d="M1585.8,1604.4h-18v45.3h-26.2v-122.1h44.2c20.5,0,31.3,11.9,31.3,30.2v16.5
	C1617.2,1592.5,1606.3,1604.4,1585.8,1604.4L1585.8,1604.4z M1592,1558.4c0-6.6-2.6-10.3-9.3-10.3h-14.8v36.8h14.8
	c6.8,0,9.3-3.7,9.3-10.3V1558.4z"/>
<path fill="#adadad" d="M1697.8,1649.7l-5.1-24.2h-25.3l-5.1,24.2h-24.6l28.6-122.1h29.3l28.4,122.1H1697.8z M1680.5,1561.6
	l-9.3,44.5h18L1680.5,1561.6z"/>
<path fill="#adadad" d="M1815.6,1649.7l-26.9-48.9l-10.4-20v68.9h-24v-122h21.8l26.2,50l9.9,20v-70h23.6v122.1L1815.6,1649.7z"/>
<path fill="#adadad" d="M1922.8,1599.1v50.6h-26.2v-50.6l-31.5-71.5h27.5l18.5,48.2l17.6-48.2h26.2L1922.8,1599.1z"/>
<path fill="#adadad" d="M202.2,1207.6c-26.8,0-44.8,16.6-44.8,41.4v56.7c0,24.8,18,41.4,44.8,41.4c26,0,42.2-15,42.2-39v-13.6h-26.9
	v13c0,9-5.4,14.1-14.9,14.1s-14.9-5.1-14.9-13.6v-61.2c0-8.6,5.6-13.7,14.9-13.7s14.9,5.2,14.9,14.1v13h26.9v-13.6
	C244.4,1222.5,228.2,1207.6,202.2,1207.6z"/>
<path fill="#adadad" d="M369.6,1207.8c-13.2,0-24.4,4-32.3,11.5c-7.7,7.3-11.7,17.5-11.7,29.3v57.5c0,24.9,17.3,41,44,41
	s44-16.1,44-41v-57.5C413.5,1223.8,396.3,1207.8,369.6,1207.8L369.6,1207.8z M383.5,1247v60.7c0,8.7-5.2,13.9-13.9,13.9
	s-13.7-5.2-13.7-13.9V1247c0-8.7,5.1-13.9,13.7-13.9S383.5,1238.3,383.5,1247L383.5,1247z"/>
<path fill="#adadad" d="M577.8,1259.4v-15.8c0-20.5-13-32.7-34.7-32.7h-48.7v132.8h29.8v-51.2h6.7l18.7,51.2h30.9l-21.2-54.9
	C571.6,1284.3,577.8,1274.4,577.8,1259.4z M524.2,1234.6h15.7c6.3,0,9.2,3.1,9.2,9.8v15.6c0,7.2-3.3,10.6-10.4,10.6h-14.5
	L524.2,1234.6z"/>
<path fill="#adadad" d="M709.2,1210.9h-48.3v132.8h29.8v-48.7h18.5c21.6,0,34.5-12.4,34.5-33.1v-17.7
	C743.6,1223.4,730.7,1210.9,709.2,1210.9z M690.6,1234.6h15.1c6.4,0,9.2,3.2,9.2,10.2v17.5c0,7.1-2.8,10.2-9.2,10.2h-15.1V1234.6z"
	/>
<path fill="#adadad" d="M868,1207.8c-13.2,0-24.4,4-32.3,11.5c-7.7,7.3-11.7,17.5-11.7,29.3v57.5c0,24.9,17.3,41,44,41
	s44-16.1,44-41v-57.5C912,1223.8,894.8,1207.8,868,1207.8L868,1207.8z M882,1247v60.7c0,8.7-5.2,13.9-13.9,13.9s-13.7-5.2-13.7-13.9
	V1247c0-8.7,5.1-13.9,13.7-13.9S882,1238.3,882,1247z"/>
<path fill="#adadad" d="M1080.2,1259.4v-15.8c0-20.5-13-32.7-34.7-32.7h-48.7v132.8h29.8v-51.2h6.7l18.7,51.2h30.9l-21.2-54.9
	C1074,1284.3,1080.2,1274.4,1080.2,1259.4z M1026.6,1234.6h15.7c6.3,0,9.2,3.1,9.2,9.8v15.6c0,7.2-3.3,10.6-10.4,10.6h-14.5
	L1026.6,1234.6z"/>
<path fill="#adadad" d="M1185.3,1210.9l-31.1,132.8h28.1l5.5-26h25.8l5.5,26h29.9l-30.9-132.8H1185.3z M1209.5,1295.2h-17.3l9-42.8
	L1209.5,1295.2z"/>
<path fill="#adadad" d="M1312.5,1236.6h28.4v107.1h29.8v-107.1h28.2v-25.7h-86.3V1236.6z"/>
<path fill="#adadad" d="M1477.9,1210.9h29.8v132.8h-29.8V1210.9z"/>
<path fill="#adadad" d="M1636.7,1207.8c-13.2,0-24.4,4-32.3,11.5c-7.7,7.3-11.7,17.5-11.7,29.3v57.5c0,24.9,17.3,41,44,41
	s44-16.1,44-41v-57.5C1680.7,1223.8,1663.4,1207.8,1636.7,1207.8L1636.7,1207.8z M1650.7,1247v60.7c0,8.7-5.2,13.9-13.9,13.9
	s-13.7-5.2-13.7-13.9V1247c0-8.7,5.1-13.9,13.7-13.9S1650.7,1238.3,1650.7,1247L1650.7,1247z"/>
<path fill="#adadad" d="M1827.7,1210.9v72.5l-9.1-18.3l-28.4-54.2h-24.8v132.8h27.5v-71.5l9.7,18.5l29.2,53h23v-132.8H1827.7z"/>
<path fill="#adadad" d="M2013.6,1199.9v-35.6h-26.1V1103H26.2v61.3H0v35.6h26.2v154.7H0v35.6h26.2v61.4h1961.3v-61.4h26.1v-35.6
	h-26.1v-154.8L2013.6,1199.9z M1952.2,1416.1H61.6v-277.8h1890.5V1416.1z"/>
</svg>
