<svg xmlns="http://www.w3.org/2000/svg" width="24" height="24" viewBox="0 0 128 128"><path d="M128,64A64,64,0,1,1,64,0,64,64,0,0,1,128,64ZM98.22,57.84c-10.64-5.17-30.56-11.35-53.35-1.1l-.06,0c21.78-2.92,36.81,2.2,46.57,8.35a2.27,2.27,0,0,1,.94,2.65L89,77.7a2.29,2.29,0,0,1-2.3,1.56c-13.15-.69-22.89,2.33-29.93,6.4a22.36,22.36,0,0,0-5,3.91,1.38,1.38,0,0,1-2.26-.39C47.91,85.57,45,79,45,79a2.27,2.27,0,0,1,.9-2.85,59.71,59.71,0,0,1,21.36-7.92c-13-1.88-25.62,1.31-33.93,4.34a2.29,2.29,0,0,1-2.88-1.22L23.2,55A2.27,2.27,0,0,1,24,52.25c34.42-24.15,65.6-14,78.74-7.55a2.27,2.27,0,0,1,1.17,2.77l-3.11,9.31A1.83,1.83,0,0,1,98.22,57.84Z" fill="#adadad" fill-rule="evenodd"></path></svg>